<?xml version="1.0" standalone="no"?>
<!DOCTYPE svg PUBLIC "-//W3C//DTD SVG 20010904//EN"
 "http://www.w3.org/TR/2001/REC-SVG-20010904/DTD/svg10.dtd">
<svg version="1.0" xmlns="http://www.w3.org/2000/svg"
 width="960.000000pt" height="960.000000pt" viewBox="0 0 960.000000 960.000000"
 preserveAspectRatio="xMidYMid meet">
<metadata>
Created by potrace 1.14, written by Peter Selinger 2001-2017
</metadata>
<g transform="translate(0.000000,960.000000) scale(0.100000,-0.100000)"
fill="#000000" stroke="none">
<path d="M0 4800 l0 -2640 4800 0 4800 0 0 2640 0 2640 -4800 0 -4800 0 0
-2640z m3389 1300 c347 -21 523 -70 705 -193 131 -89 264 -257 337 -426 35
-83 64 -170 57 -175 -4 -4 -811 -146 -824 -146 -6 0 -26 29 -43 65 -88 179
-276 275 -511 261 -170 -10 -285 -59 -396 -170 -149 -149 -204 -333 -204 -681
0 -351 58 -546 204 -690 108 -106 225 -156 401 -171 166 -14 341 28 538 128
l117 60 0 139 0 139 -295 0 -295 0 0 295 0 295 675 0 675 0 0 -609 0 -609
-112 -73 c-141 -91 -383 -216 -508 -262 -210 -77 -386 -106 -691 -114 -398
-10 -666 38 -904 160 -339 176 -572 518 -657 965 -30 158 -32 513 -4 667 43
233 137 464 254 620 114 153 285 297 460 384 234 118 593 167 1021 141z m3209
0 c405 -31 699 -150 926 -373 185 -182 298 -403 358 -699 21 -101 23 -141 23
-383 0 -307 -16 -431 -79 -620 -153 -457 -503 -748 -1011 -841 -155 -29 -575
-27 -740 3 -228 42 -403 107 -546 203 -86 58 -219 188 -290 282 -180 241 -263
508 -276 884 -13 395 63 714 235 979 62 95 239 271 337 334 281 184 649 263
1063 231z"/>
<path d="M6345 5444 c-161 -25 -296 -108 -378 -231 -94 -143 -130 -303 -130
-583 -1 -333 51 -517 186 -657 115 -120 262 -171 462 -160 228 12 394 122 475
314 56 134 74 251 74 508 1 246 -7 310 -56 445 -61 169 -193 292 -367 344 -55
16 -212 28 -266 20z"/>
</g>
</svg>
